<?xml version="1.0" encoding="UTF-8" standalone="no"?>
<svg
   xmlns:dc="http://purl.org/dc/elements/1.1/"
   xmlns:cc="http://creativecommons.org/ns#"
   xmlns:rdf="http://www.w3.org/1999/02/22-rdf-syntax-ns#"
   xmlns:svg="http://www.w3.org/2000/svg"
   xmlns="http://www.w3.org/2000/svg"
   xmlns:sodipodi="http://sodipodi.sourceforge.net/DTD/sodipodi-0.dtd"
   xmlns:inkscape="http://www.inkscape.org/namespaces/inkscape"
   sodipodi:docname="OSControlMapPanel.svg"
   inkscape:version="1.0 (4035a4fb49, 2020-05-01)"
   id="svg22863"
   version="1.1"
   viewBox="0 0 50.799999 128.50069"
   height="128.50069mm"
   width="50.799999mm">
  <defs
     id="defs22857" />
  <sodipodi:namedview
     inkscape:document-rotation="0"
     inkscape:window-maximized="1"
     inkscape:window-y="1072"
     inkscape:window-x="-8"
     inkscape:window-height="1057"
     inkscape:window-width="1920"
     inkscape:bbox-nodes="true"
     inkscape:snap-nodes="false"
     inkscape:snap-bbox="true"
     fit-margin-bottom="0"
     fit-margin-right="0"
     fit-margin-left="0"
     fit-margin-top="0"
     showgrid="false"
     inkscape:current-layer="layer1"
     inkscape:document-units="mm"
     inkscape:cy="135.44254"
     inkscape:cx="23.320889"
     inkscape:zoom="0.98994949"
     inkscape:pageshadow="2"
     inkscape:pageopacity="0.0"
     borderopacity="1.0"
     bordercolor="#666666"
     pagecolor="#ffffff"
     id="base"
     inkscape:snap-text-baseline="true" />
  <metadata
     id="metadata22860">
    <rdf:RDF>
      <cc:Work
         rdf:about="">
        <dc:format>image/svg+xml</dc:format>
        <dc:type
           rdf:resource="http://purl.org/dc/dcmitype/StillImage" />
        <dc:title />
      </cc:Work>
    </rdf:RDF>
  </metadata>
  <g
     transform="translate(-69.85,-117.08894)"
     id="layer1"
     inkscape:groupmode="layer"
     inkscape:label="Layer 1"
     style="display:inline">
    <path
       id="path11771"
       d="M 69.942357,117.18265 H 120.5563 V 245.49592 H 69.942357 Z m 0,0"
       style="fill:#e6e6e6;fill-opacity:1;fill-rule:nonzero;stroke:none;stroke-width:0.352778"
       inkscape:connector-curvature="0" />
    <path
       id="path11773"
       d="m 120.65,117.08894 h -50.8 v 128.50069 h 50.8 z m -0.1874,128.31328 H 70.036055 V 117.27636 H 120.4626 Z m 0,0"
       style="fill:#ababab;fill-opacity:1;fill-rule:nonzero;stroke:none;stroke-width:0.352778"
       inkscape:connector-curvature="0" />
    <path
       id="path21860"
       d=""
       style="fill:#ffd714;fill-opacity:1;stroke:none;stroke-width:0.352778"
       inkscape:connector-curvature="0" />
    <path
       id="path21804"
       d=""
       style="fill:#ffd714;fill-opacity:1;stroke:none;stroke-width:0.352778"
       inkscape:connector-curvature="0" />
    <path
       id="path21824"
       d=""
       style="fill:#ffd714;fill-opacity:1;stroke:none;stroke-width:0.352778"
       inkscape:connector-curvature="0" />
    <path
       id="path21756"
       d=""
       style="fill:#ffd714;fill-opacity:1;stroke:none;stroke-width:0.352778"
       inkscape:connector-curvature="0" />
    <g
       aria-label="deLirios"
       id="text37-9-1"
       style="font-style:normal;font-variant:normal;font-weight:bold;font-stretch:normal;font-size:4.23331px;line-height:1.25;font-family:sans-serif;-inkscape-font-specification:'sans-serif Bold';display:inline;fill:#000000;fill-opacity:1;stroke:none;stroke-width:0.264582"
       transform="translate(0,2.1166667)">
      <path
         d="m 88.383049,240.30424 h -0.744137 v -0.24184 q -0.192235,0.1571 -0.359666,0.23151 -0.16743,0.0744 -0.386537,0.0744 -0.423745,0 -0.677991,-0.32659 -0.254247,-0.32659 -0.254247,-0.88056 0,-0.29559 0.08475,-0.52296 0.08682,-0.22945 0.235643,-0.39274 0.140559,-0.15503 0.341063,-0.23978 0.200503,-0.0868 0.401007,-0.0868 0.208771,0 0.341062,0.0455 0.134358,0.0434 0.274917,0.11162 v -0.98805 h 0.744137 z m -0.744137,-0.64078 v -1.13894 q -0.07855,-0.0331 -0.165363,-0.0475 -0.08682,-0.0145 -0.159163,-0.0145 -0.29352,0 -0.440281,0.18396 -0.14676,0.1819 -0.14676,0.50643 0,0.34106 0.117822,0.49609 0.117821,0.15296 0.378269,0.15296 0.101285,0 0.214973,-0.0372 0.113688,-0.0393 0.200503,-0.10129 z"
         style="font-style:normal;font-variant:normal;font-weight:bold;font-stretch:normal;font-size:4.23331px;font-family:sans-serif;-inkscape-font-specification:'sans-serif Bold';stroke-width:0.264582"
         id="path132" />
      <path
         d="m 91.371997,239.28106 h -1.703245 q 0.01654,0.27285 0.206704,0.41754 0.192235,0.14469 0.564304,0.14469 0.235643,0 0.456817,-0.0847 0.221174,-0.0847 0.349331,-0.1819 h 0.08268 v 0.59738 q -0.25218,0.10129 -0.475421,0.14676 -0.223241,0.0455 -0.494024,0.0455 -0.698662,0 -1.07073,-0.31419 -0.372068,-0.3142 -0.372068,-0.89504 0,-0.57463 0.351398,-0.9095 0.353465,-0.33692 0.967377,-0.33692 0.566371,0 0.851623,0.28732 0.285252,0.28525 0.285252,0.82268 z m -0.740002,-0.43615 q -0.0062,-0.23358 -0.115755,-0.3514 -0.109553,-0.11782 -0.341062,-0.11782 -0.214973,0 -0.353465,0.11162 -0.138492,0.11162 -0.155028,0.3576 z"
         style="font-style:normal;font-variant:normal;font-weight:bold;font-stretch:normal;font-size:4.23331px;font-family:sans-serif;-inkscape-font-specification:'sans-serif Bold';stroke-width:0.264582"
         id="path134" />
      <path
         d="m 94.158376,240.30424 h -2.220008 v -3.07783 h 0.793746 v 2.48253 h 1.426262 z"
         style="font-style:normal;font-variant:normal;font-weight:bold;font-stretch:normal;font-size:4.23331px;font-family:sans-serif;-inkscape-font-specification:'sans-serif Bold';stroke-width:0.264582"
         id="path136" />
      <path
         d="m 95.336592,240.30424 h -0.744137 v -2.32129 h 0.744137 z m 0.02067,-2.65202 h -0.785477 v -0.5643 h 0.785477 z"
         style="font-style:normal;font-variant:normal;font-weight:bold;font-stretch:normal;font-size:4.23331px;font-family:sans-serif;-inkscape-font-specification:'sans-serif Bold';stroke-width:0.264582"
         id="path138" />
      <path
         d="m 97.721963,238.69195 h -0.06615 q -0.04754,-0.0165 -0.152961,-0.0248 -0.10542,-0.008 -0.175699,-0.008 -0.159163,0 -0.281119,0.0207 -0.121955,0.0207 -0.262514,0.0703 v 1.55441 h -0.744137 v -2.32129 h 0.744137 v 0.34106 q 0.245978,-0.21083 0.427878,-0.27905 0.1819,-0.0703 0.334862,-0.0703 0.03927,0 0.08888,0.002 0.04961,0.002 0.08682,0.006 z"
         style="font-style:normal;font-variant:normal;font-weight:bold;font-stretch:normal;font-size:4.23331px;font-family:sans-serif;-inkscape-font-specification:'sans-serif Bold';stroke-width:0.264582"
         id="path140" />
      <path
         d="m 98.891911,240.30424 h -0.744137 v -2.32129 h 0.744137 z m 0.02067,-2.65202 h -0.785477 v -0.5643 h 0.785477 z"
         style="font-style:normal;font-variant:normal;font-weight:bold;font-stretch:normal;font-size:4.23331px;font-family:sans-serif;-inkscape-font-specification:'sans-serif Bold';stroke-width:0.264582"
         id="path142" />
      <path
         d="m 101.96768,239.14463 q 0,0.57257 -0.33487,0.9033 -0.33279,0.32866 -0.93637,0.32866 -0.60358,0 -0.938437,-0.32866 -0.332794,-0.33073 -0.332794,-0.9033 0,-0.5767 0.334862,-0.90536 0.336929,-0.32866 0.936369,-0.32866 0.60771,0 0.93844,0.33072 0.3328,0.33073 0.3328,0.9033 z m -0.91571,0.56431 q 0.0724,-0.0889 0.10749,-0.21291 0.0372,-0.12609 0.0372,-0.34726 0,-0.20464 -0.0372,-0.34313 -0.0372,-0.1385 -0.10335,-0.22118 -0.0662,-0.0848 -0.15916,-0.11989 -0.093,-0.0351 -0.20051,-0.0351 -0.10748,0 -0.19223,0.0289 -0.0827,0.0289 -0.15917,0.11576 -0.0682,0.0806 -0.10955,0.22117 -0.0393,0.14056 -0.0393,0.35347 0,0.19016 0.0351,0.33072 0.0351,0.1385 0.10335,0.22324 0.0661,0.0806 0.15709,0.11783 0.093,0.0372 0.21084,0.0372 0.10129,0 0.19224,-0.0331 0.093,-0.0351 0.15709,-0.11575 z"
         style="font-style:normal;font-variant:normal;font-weight:bold;font-stretch:normal;font-size:4.23331px;font-family:sans-serif;-inkscape-font-specification:'sans-serif Bold';stroke-width:0.264582"
         id="path144" />
      <path
         d="m 104.52254,239.56838 q 0,0.35966 -0.32246,0.58084 -0.32245,0.2191 -0.88262,0.2191 -0.31006,0 -0.56224,-0.0579 -0.25218,-0.0579 -0.40514,-0.12816 v -0.61185 h 0.0682 q 0.0558,0.0393 0.12816,0.0868 0.0744,0.0455 0.20877,0.0992 0.11575,0.0475 0.26251,0.0827 0.14676,0.0331 0.3142,0.0331 0.2191,0 0.32452,-0.0475 0.10542,-0.0496 0.10542,-0.14469 0,-0.0848 -0.062,-0.12196 -0.062,-0.0393 -0.23564,-0.0744 -0.0827,-0.0186 -0.22531,-0.0393 -0.14056,-0.0227 -0.25632,-0.0537 -0.31625,-0.0827 -0.46921,-0.25631 -0.15297,-0.1757 -0.15297,-0.43615 0,-0.33486 0.31626,-0.55604 0.31833,-0.22324 0.86816,-0.22324 0.26045,0 0.49816,0.0538 0.23978,0.0517 0.37413,0.11162 v 0.58704 h -0.0641 q -0.16537,-0.11369 -0.37827,-0.18397 -0.21084,-0.0724 -0.42788,-0.0724 -0.17983,0 -0.30386,0.0496 -0.12195,0.0496 -0.12195,0.14056 0,0.0827 0.0558,0.12609 0.0558,0.0434 0.26251,0.0868 0.11369,0.0227 0.24391,0.0455 0.13229,0.0207 0.26459,0.0538 0.29352,0.0765 0.43408,0.24184 0.14055,0.1633 0.14055,0.40928 z"
         style="font-style:normal;font-variant:normal;font-weight:bold;font-stretch:normal;font-size:4.23331px;font-family:sans-serif;-inkscape-font-specification:'sans-serif Bold';stroke-width:0.264582"
         id="path146" />
    </g>
    <g
       aria-label="OSControlMap"
       id="text873"
       style="font-size:3.52778px;line-height:1.25;font-family:sans-serif;stroke-width:0.264583">
      <path
         d="m 83.896845,121.89002 q 0,0.61322 -0.3514,0.97496 -0.3514,0.36001 -0.971518,0.36001 -0.618395,0 -0.969795,-0.36001 -0.3514,-0.36174 -0.3514,-0.97496 0,-0.6184 0.3514,-0.97669 0.3514,-0.36001 0.969795,-0.36001 0.616673,0 0.969795,0.36001 0.353123,0.35829 0.353123,0.97669 z m -0.876778,0.6494 q 0.09646,-0.11714 0.142972,-0.27561 0.04651,-0.1602 0.04651,-0.37552 0,-0.23082 -0.0534,-0.39274 -0.0534,-0.16192 -0.139527,-0.26182 -0.08785,-0.10336 -0.20326,-0.14987 -0.113689,-0.0465 -0.237712,-0.0465 -0.125746,0 -0.237712,0.0448 -0.110243,0.0448 -0.203261,0.14814 -0.08613,0.0965 -0.141249,0.267 -0.0534,0.16881 -0.0534,0.39274 0,0.2291 0.05168,0.39101 0.0534,0.1602 0.139526,0.26183 0.08613,0.10163 0.201538,0.14986 0.115411,0.0482 0.24288,0.0482 0.127468,0 0.242879,-0.0482 0.115411,-0.0499 0.201538,-0.1533 z"
         style="font-style:normal;font-variant:normal;font-weight:bold;font-stretch:normal;font-size:3.52778px;font-family:sans-serif;-inkscape-font-specification:'sans-serif Bold';stroke-width:0.264583"
         id="path1094" />
      <path
         d="m 86.453107,122.36544 q 0,0.37896 -0.322116,0.61667 -0.320394,0.23599 -0.87161,0.23599 -0.318672,0 -0.556383,-0.0551 -0.235989,-0.0568 -0.442695,-0.14297 v -0.61495 h 0.07235 q 0.204983,0.16364 0.458198,0.25149 0.254937,0.0879 0.489204,0.0879 0.06029,0 0.158474,-0.0103 0.09819,-0.0103 0.160197,-0.0345 0.07579,-0.031 0.124024,-0.0775 0.04995,-0.0465 0.04995,-0.1378 0,-0.0844 -0.07235,-0.1447 -0.07062,-0.062 -0.208428,-0.0947 -0.144694,-0.0345 -0.306614,-0.0637 -0.160197,-0.031 -0.301446,-0.0775 -0.323839,-0.10507 -0.46681,-0.28422 -0.141249,-0.18087 -0.141249,-0.44786 0,-0.35829 0.320394,-0.58394 0.322116,-0.22738 0.826823,-0.22738 0.253215,0 0.499539,0.0499 0.248047,0.0482 0.428915,0.1223 v 0.59084 h -0.07063 q -0.155029,-0.12403 -0.380683,-0.20671 -0.223931,-0.0844 -0.458198,-0.0844 -0.08268,0 -0.165365,0.0121 -0.08096,0.0103 -0.156751,0.0413 -0.06718,0.0258 -0.115411,0.0792 -0.04823,0.0517 -0.04823,0.11886 0,0.10163 0.07752,0.15675 0.07752,0.0534 0.292833,0.0982 0.141249,0.0293 0.270441,0.0568 0.130913,0.0276 0.280775,0.0758 0.294556,0.0965 0.434082,0.26355 0.141249,0.16537 0.141249,0.43064 z"
         style="font-style:normal;font-variant:normal;font-weight:bold;font-stretch:normal;font-size:3.52778px;font-family:sans-serif;-inkscape-font-specification:'sans-serif Bold';stroke-width:0.264583"
         id="path1096" />
      <path
         d="m 88.067136,123.22155 q -0.285944,0 -0.528823,-0.0844 -0.241157,-0.0844 -0.415134,-0.25149 -0.173978,-0.16709 -0.27044,-0.41686 -0.09474,-0.24977 -0.09474,-0.57705 0,-0.30489 0.0913,-0.55294 0.0913,-0.24805 0.265272,-0.42547 0.167087,-0.17053 0.413412,-0.26355 0.248047,-0.093 0.54088,-0.093 0.16192,0 0.291111,0.019 0.130914,0.0172 0.241157,0.0465 0.115411,0.0327 0.208428,0.0741 0.09474,0.0396 0.165365,0.0741 v 0.62184 h -0.07579 q -0.04823,-0.0413 -0.122301,-0.0982 -0.07235,-0.0568 -0.165365,-0.11196 -0.09474,-0.0551 -0.204983,-0.093 -0.110243,-0.0379 -0.235989,-0.0379 -0.139527,0 -0.265273,0.0448 -0.125746,0.0431 -0.232544,0.1447 -0.10163,0.0982 -0.165365,0.2601 -0.06201,0.16192 -0.06201,0.39274 0,0.24116 0.06718,0.40308 0.0689,0.16192 0.172255,0.25494 0.105075,0.0947 0.234266,0.13608 0.129192,0.0396 0.254938,0.0396 0.120578,0 0.237711,-0.0362 0.118856,-0.0362 0.218764,-0.0982 0.08441,-0.05 0.156752,-0.1068 0.07235,-0.0568 0.118856,-0.0982 h 0.0689 v 0.61323 q -0.09646,0.0431 -0.184313,0.081 -0.08785,0.0379 -0.184313,0.0655 -0.125746,0.0362 -0.235989,0.0551 -0.110243,0.0189 -0.303168,0.0189 z"
         style="font-style:normal;font-variant:normal;font-weight:bold;font-stretch:normal;font-size:3.52778px;font-family:sans-serif;-inkscape-font-specification:'sans-serif Bold';stroke-width:0.264583"
         id="path1098" />
      <path
         d="m 91.407158,122.20524 q 0,0.47715 -0.279053,0.75276 -0.27733,0.27388 -0.780314,0.27388 -0.502985,0 -0.782037,-0.27388 -0.277331,-0.27561 -0.277331,-0.75276 0,-0.48059 0.279053,-0.75447 0.280776,-0.27389 0.780315,-0.27389 0.506429,0 0.782037,0.27561 0.27733,0.27561 0.27733,0.75275 z m -0.763089,0.47026 q 0.06029,-0.0741 0.08957,-0.17742 0.03101,-0.10508 0.03101,-0.28939 0,-0.17053 -0.03101,-0.28595 -0.03101,-0.11541 -0.08613,-0.18431 -0.05512,-0.0706 -0.132636,-0.0999 -0.07751,-0.0293 -0.167087,-0.0293 -0.08957,0 -0.160197,0.0241 -0.0689,0.0241 -0.132637,0.0965 -0.05684,0.0672 -0.0913,0.18431 -0.03273,0.11714 -0.03273,0.29456 0,0.15847 0.02928,0.27561 0.02928,0.11541 0.08613,0.18603 0.05512,0.0672 0.130913,0.0982 0.07752,0.031 0.1757,0.031 0.08441,0 0.160197,-0.0276 0.07752,-0.0293 0.130914,-0.0965 z"
         style="font-style:normal;font-variant:normal;font-weight:bold;font-stretch:normal;font-size:3.52778px;font-family:sans-serif;-inkscape-font-specification:'sans-serif Bold';stroke-width:0.264583"
         id="path1100" />
      <path
         d="m 93.798056,123.17159 h -0.623563 v -0.95946 q 0,-0.11713 -0.01206,-0.23254 -0.01206,-0.11713 -0.04134,-0.17226 -0.03445,-0.0637 -0.10163,-0.093 -0.06546,-0.0293 -0.184313,-0.0293 -0.0844,0 -0.172255,0.0276 -0.08613,0.0276 -0.187758,0.0878 v 1.37115 h -0.620117 v -1.93442 h 0.620117 v 0.2136 q 0.165365,-0.12919 0.316949,-0.1981 0.153307,-0.0689 0.339342,-0.0689 0.313504,0 0.489204,0.18259 0.177423,0.18259 0.177423,0.54605 z"
         style="font-style:normal;font-variant:normal;font-weight:bold;font-stretch:normal;font-size:3.52778px;font-family:sans-serif;-inkscape-font-specification:'sans-serif Bold';stroke-width:0.264583"
         id="path1102" />
      <path
         d="m 95.606732,123.15437 q -0.09991,0.0258 -0.211874,0.0396 -0.111965,0.0155 -0.273885,0.0155 -0.361735,0 -0.539158,-0.14642 -0.1757,-0.14641 -0.1757,-0.50126 v -0.90434 h -0.254937 v -0.4203 h 0.254937 v -0.55294 h 0.620118 v 0.55294 h 0.580499 v 0.4203 h -0.580499 v 0.68558 q 0,0.10163 0.0017,0.17742 0.0017,0.0758 0.02756,0.13608 0.02412,0.0603 0.08441,0.0965 0.06201,0.0344 0.179145,0.0344 0.04823,0 0.125746,-0.0207 0.07924,-0.0207 0.110243,-0.0379 h 0.05168 z"
         style="font-style:normal;font-variant:normal;font-weight:bold;font-stretch:normal;font-size:3.52778px;font-family:sans-serif;-inkscape-font-specification:'sans-serif Bold';stroke-width:0.264583"
         id="path1104" />
      <path
         d="m 97.377512,121.828 h -0.05512 q -0.03962,-0.0138 -0.127468,-0.0207 -0.08785,-0.007 -0.146417,-0.007 -0.132636,0 -0.234267,0.0172 -0.10163,0.0172 -0.218763,0.0586 v 1.29535 h -0.620118 v -1.93442 h 0.620118 v 0.28422 q 0.204983,-0.1757 0.356567,-0.23254 0.151585,-0.0586 0.279053,-0.0586 0.03273,0 0.07407,0.002 0.04134,0.002 0.07235,0.005 z"
         style="font-style:normal;font-variant:normal;font-weight:bold;font-stretch:normal;font-size:3.52778px;font-family:sans-serif;-inkscape-font-specification:'sans-serif Bold';stroke-width:0.264583"
         id="path1106" />
      <path
         d="m 99.709843,122.20524 q 0,0.47715 -0.279053,0.75276 -0.27733,0.27388 -0.780314,0.27388 -0.502985,0 -0.782038,-0.27388 -0.27733,-0.27561 -0.27733,-0.75276 0,-0.48059 0.279053,-0.75447 0.280775,-0.27389 0.780315,-0.27389 0.506429,0 0.782037,0.27561 0.27733,0.27561 0.27733,0.75275 z m -0.763089,0.47026 q 0.06029,-0.0741 0.08957,-0.17742 0.03101,-0.10508 0.03101,-0.28939 0,-0.17053 -0.03101,-0.28595 -0.03101,-0.11541 -0.08613,-0.18431 -0.05512,-0.0706 -0.132636,-0.0999 -0.07752,-0.0293 -0.167087,-0.0293 -0.08957,0 -0.160198,0.0241 -0.0689,0.0241 -0.132636,0.0965 -0.05684,0.0672 -0.0913,0.18431 -0.03273,0.11714 -0.03273,0.29456 0,0.15847 0.02928,0.27561 0.02928,0.11541 0.08613,0.18603 0.05512,0.0672 0.130914,0.0982 0.07751,0.031 0.1757,0.031 0.08441,0 0.160197,-0.0276 0.07752,-0.0293 0.130914,-0.0965 z"
         style="font-style:normal;font-variant:normal;font-weight:bold;font-stretch:normal;font-size:3.52778px;font-family:sans-serif;-inkscape-font-specification:'sans-serif Bold';stroke-width:0.264583"
         id="path1108" />
      <path
         d="m 100.77782,123.17159 h -0.62011 v -2.68028 h 0.62011 z"
         style="font-style:normal;font-variant:normal;font-weight:bold;font-stretch:normal;font-size:3.52778px;font-family:sans-serif;-inkscape-font-specification:'sans-serif Bold';stroke-width:0.264583"
         id="path1110" />
      <path
         d="m 104.08684,123.17159 h -0.65801 v -1.71738 l -0.47543,1.11449 h -0.45647 l -0.47543,-1.11449 v 1.71738 h -0.62356 v -2.56487 h 0.76826 l 0.57705,1.28674 0.57533,-1.28674 h 0.76826 z"
         style="font-style:normal;font-variant:normal;font-weight:bold;font-stretch:normal;font-size:3.52778px;font-family:sans-serif;-inkscape-font-specification:'sans-serif Bold';stroke-width:0.264583"
         id="path1112" />
      <path
         d="m 105.87657,122.66689 v -0.40308 q -0.12575,0.0103 -0.27216,0.0293 -0.14642,0.0172 -0.22221,0.0413 -0.093,0.0293 -0.14298,0.0861 -0.0482,0.0551 -0.0482,0.14642 0,0.0603 0.0103,0.0982 0.0103,0.0379 0.0517,0.0724 0.0396,0.0345 0.0947,0.0517 0.0551,0.0155 0.17225,0.0155 0.093,0 0.18776,-0.0379 0.0965,-0.0379 0.16881,-0.0999 z m 0,0.29972 q -0.05,0.0379 -0.12403,0.0913 -0.0741,0.0534 -0.13952,0.0844 -0.0913,0.0413 -0.18948,0.0603 -0.0982,0.0207 -0.21532,0.0207 -0.27561,0 -0.46164,-0.17053 -0.18604,-0.17054 -0.18604,-0.43581 0,-0.21187 0.0947,-0.34623 0.0947,-0.13436 0.26872,-0.21187 0.17225,-0.0775 0.42719,-0.11025 0.25494,-0.0327 0.52882,-0.0482 v -0.0103 q 0,-0.1602 -0.13091,-0.22049 -0.13091,-0.062 -0.38585,-0.062 -0.15331,0 -0.32729,0.0551 -0.17397,0.0534 -0.24977,0.0827 h -0.0568 v -0.46681 q 0.0982,-0.0258 0.31867,-0.0603 0.22221,-0.0362 0.44442,-0.0362 0.52882,0 0.76309,0.16364 0.23599,0.16192 0.23599,0.50988 v 1.31602 h -0.61495 z"
         style="font-style:normal;font-variant:normal;font-weight:bold;font-stretch:normal;font-size:3.52778px;font-family:sans-serif;-inkscape-font-specification:'sans-serif Bold';stroke-width:0.264583"
         id="path1114" />
      <path
         d="m 109.08051,122.17768 q 0,0.23944 -0.0741,0.43581 -0.0724,0.19637 -0.1912,0.32384 -0.12403,0.13435 -0.28078,0.20326 -0.15675,0.0689 -0.3359,0.0689 -0.16536,0 -0.28077,-0.0362 -0.11541,-0.0345 -0.23599,-0.0982 v 0.80615 h -0.62012 v -2.64411 h 0.62012 v 0.20154 q 0.14297,-0.11369 0.29111,-0.18431 0.14986,-0.0706 0.34451,-0.0706 0.36174,0 0.56155,0.26527 0.20154,0.26528 0.20154,0.72864 z m -0.63907,0.0121 q 0,-0.2825 -0.0965,-0.40997 -0.0965,-0.12747 -0.30489,-0.12747 -0.0879,0 -0.18087,0.0276 -0.093,0.0258 -0.17742,0.0758 v 0.97324 q 0.062,0.0241 0.13264,0.031 0.0706,0.007 0.13952,0.007 0.24633,0 0.3669,-0.14297 0.12058,-0.14469 0.12058,-0.43408 z"
         style="font-style:normal;font-variant:normal;font-weight:bold;font-stretch:normal;font-size:3.52778px;font-family:sans-serif;-inkscape-font-specification:'sans-serif Bold';stroke-width:0.264583"
         id="path1116" />
    </g>
    <g
       aria-label="Active"
       id="text869"
       style="font-style:normal;font-variant:normal;font-weight:normal;font-stretch:normal;font-size:3.52778px;line-height:1.25;font-family:sans-serif;-inkscape-font-specification:sans-serif;display:inline;stroke-width:0.264583"
       transform="matrix(0.69701274,0,0,0.82979262,25.120451,119.04879)">
      <path
         d="m 78.254302,128.3714 h -0.363458 l -0.251492,-0.71486 h -1.109321 l -0.251493,0.71486 h -0.346232 l 0.933622,-2.56488 h 0.454752 z m -0.720025,-1.00769 -0.449586,-1.25919 -0.451308,1.25919 z"
         style="font-style:normal;font-variant:normal;font-weight:normal;font-stretch:normal;font-size:3.52778px;font-family:sans-serif;-inkscape-font-specification:sans-serif;stroke-width:0.264583"
         id="path913" />
      <path
         d="m 80.040585,128.25082 q -0.161919,0.0775 -0.308336,0.12058 -0.144694,0.0431 -0.308336,0.0431 -0.208429,0 -0.382406,-0.0603 -0.173978,-0.062 -0.298001,-0.18603 -0.125746,-0.12403 -0.194648,-0.31351 -0.0689,-0.18948 -0.0689,-0.44269 0,-0.47198 0.258382,-0.7407 0.260105,-0.26871 0.685575,-0.26871 0.165364,0 0.323839,0.0465 0.160197,0.0465 0.292833,0.11369 v 0.36002 h -0.01722 q -0.14814,-0.11542 -0.306614,-0.17743 -0.156752,-0.062 -0.306614,-0.062 -0.275608,0 -0.435805,0.18604 -0.158474,0.18431 -0.158474,0.5426 0,0.34795 0.155029,0.53571 0.156752,0.18604 0.43925,0.18604 0.09819,0 0.199816,-0.0258 0.10163,-0.0258 0.18259,-0.0672 0.07063,-0.0362 0.132636,-0.0758 0.06201,-0.0413 0.09819,-0.0706 h 0.01722 z"
         style="font-style:normal;font-variant:normal;font-weight:normal;font-stretch:normal;font-size:3.52778px;font-family:sans-serif;-inkscape-font-specification:sans-serif;stroke-width:0.264583"
         id="path915" />
      <path
         d="m 81.45652,128.35417 q -0.0913,0.0241 -0.199815,0.0396 -0.106798,0.0155 -0.191203,0.0155 -0.294556,0 -0.447863,-0.15848 -0.153307,-0.15847 -0.153307,-0.50815 v -1.0232 h -0.218763 v -0.27216 h 0.218763 v -0.55294 h 0.323839 v 0.55294 h 0.668349 v 0.27216 h -0.668349 v 0.87678 q 0,0.15159 0.0069,0.23771 0.0069,0.0844 0.04823,0.15848 0.0379,0.0689 0.103353,0.10163 0.06718,0.031 0.203261,0.031 0.07924,0 0.165364,-0.0224 0.08613,-0.0241 0.124024,-0.0396 h 0.01722 z"
         style="font-style:normal;font-variant:normal;font-weight:normal;font-stretch:normal;font-size:3.52778px;font-family:sans-serif;-inkscape-font-specification:sans-serif;stroke-width:0.264583"
         id="path917" />
      <path
         d="m 82.197216,126.1252 h -0.36518 v -0.3359 h 0.36518 z m -0.02067,2.2462 h -0.323839 v -1.92409 h 0.323839 z"
         style="font-style:normal;font-variant:normal;font-weight:normal;font-stretch:normal;font-size:3.52778px;font-family:sans-serif;-inkscape-font-specification:sans-serif;stroke-width:0.264583"
         id="path919" />
      <path
         d="m 84.484761,126.44731 -0.778592,1.92409 h -0.325561 l -0.773425,-1.92409 h 0.3514 l 0.596002,1.53135 0.590834,-1.53135 z"
         style="font-style:normal;font-variant:normal;font-weight:normal;font-stretch:normal;font-size:3.52778px;font-family:sans-serif;-inkscape-font-specification:sans-serif;stroke-width:0.264583"
         id="path921" />
      <path
         d="m 86.491531,127.44295 h -1.417658 q 0,0.17742 0.0534,0.31005 0.0534,0.13092 0.146417,0.21532 0.08957,0.0827 0.211873,0.12403 0.124024,0.0413 0.272163,0.0413 0.19637,0 0.394463,-0.0775 0.199816,-0.0792 0.284221,-0.15503 h 0.01723 v 0.35313 q -0.163643,0.0689 -0.334175,0.11541 -0.170532,0.0465 -0.35829,0.0465 -0.478869,0 -0.747586,-0.25839 -0.268718,-0.2601 -0.268718,-0.73725 0,-0.47198 0.25666,-0.74931 0.258382,-0.27733 0.678684,-0.27733 0.389296,0 0.599447,0.22738 0.211874,0.22738 0.211874,0.64596 z m -0.315227,-0.24805 q -0.0017,-0.25494 -0.129191,-0.39447 -0.125746,-0.13952 -0.384128,-0.13952 -0.260105,0 -0.415135,0.1533 -0.153307,0.15331 -0.173977,0.38069 z"
         style="font-style:normal;font-variant:normal;font-weight:normal;font-stretch:normal;font-size:3.52778px;font-family:sans-serif;-inkscape-font-specification:sans-serif;stroke-width:0.264583"
         id="path923" />
    </g>
    <g
       aria-label="Config"
       id="text869-2"
       style="font-style:normal;font-variant:normal;font-weight:normal;font-stretch:normal;font-size:3.52778px;line-height:1.25;font-family:sans-serif;-inkscape-font-specification:sans-serif;display:inline;stroke-width:0.264583"
       transform="translate(0,97.366725)">
      <path
         d="m 107.28205,128.04937 q -0.066,0.0343 -0.12006,0.0643 -0.0528,0.03 -0.13927,0.0629 -0.0732,0.0271 -0.1597,0.0458 -0.0852,0.02 -0.18849,0.02 -0.1945,0 -0.35419,-0.0643 -0.15849,-0.0658 -0.27615,-0.2044 -0.11526,-0.13579 -0.1801,-0.34448 -0.0649,-0.21012 -0.0649,-0.4874 0,-0.26301 0.0624,-0.47026 0.0624,-0.20726 0.1801,-0.3502 0.11405,-0.13865 0.27493,-0.21155 0.16209,-0.0729 0.359,-0.0729 0.14408,0 0.28695,0.0415 0.14408,0.0414 0.31937,0.14581 v 0.33589 h -0.018 q -0.14767,-0.14722 -0.29295,-0.2144 -0.14529,-0.0672 -0.31097,-0.0672 -0.13567,0 -0.24493,0.0529 -0.10806,0.0514 -0.1933,0.16152 -0.0829,0.1072 -0.12967,0.27158 -0.0457,0.16294 -0.0457,0.37735 0,0.22441 0.0505,0.38592 0.0516,0.16152 0.13206,0.263 0.084,0.10577 0.19571,0.15723 0.11285,0.0501 0.23772,0.0501 0.17169,0 0.32178,-0.07 0.15007,-0.07 0.28094,-0.21012 h 0.0168 z"
         style="font-style:normal;font-variant:normal;font-weight:normal;font-stretch:normal;font-size:3.52778px;font-family:sans-serif;-inkscape-font-specification:sans-serif;stroke-width:0.201218"
         id="path926" />
      <path
         d="m 108.74563,127.40617 q 0,0.39021 -0.16809,0.61605 -0.16809,0.22585 -0.45024,0.22585 -0.28455,0 -0.45265,-0.22585 -0.16688,-0.22584 -0.16688,-0.61605 0,-0.39022 0.16688,-0.61605 0.1681,-0.22728 0.45265,-0.22728 0.28215,0 0.45024,0.22728 0.16809,0.22583 0.16809,0.61605 z m -0.23292,0 q 0,-0.31018 -0.10206,-0.46025 -0.10205,-0.15151 -0.28335,-0.15151 -0.18369,0 -0.28575,0.15151 -0.10086,0.15007 -0.10086,0.46025 0,0.30016 0.10206,0.45596 0.10205,0.15438 0.28455,0.15438 0.18009,0 0.28215,-0.15295 0.10326,-0.15437 0.10326,-0.45739 z"
         style="font-style:normal;font-variant:normal;font-weight:normal;font-stretch:normal;font-size:3.52778px;font-family:sans-serif;-inkscape-font-specification:sans-serif;stroke-width:0.201218"
         id="path928" />
      <path
         d="m 110.21761,128.20375 h -0.22572 v -0.90907 q 0,-0.11007 -0.0108,-0.20583 -0.0108,-0.0972 -0.0396,-0.15152 -0.03,-0.0601 -0.0864,-0.0886 -0.0565,-0.03 -0.14648,-0.03 -0.0924,0 -0.1933,0.0544 -0.10085,0.0544 -0.19331,0.13864 v 1.19209 h -0.22571 v -1.59659 h 0.22571 v 0.17724 q 0.10566,-0.10435 0.21853,-0.16295 0.11286,-0.0586 0.23172,-0.0586 0.21731,0 0.33138,0.1558 0.11406,0.1558 0.11406,0.44882 z"
         style="font-style:normal;font-variant:normal;font-weight:normal;font-stretch:normal;font-size:3.52778px;font-family:sans-serif;-inkscape-font-specification:sans-serif;stroke-width:0.201218"
         id="path930" />
      <path
         d="m 111.37383,126.23981 h -0.012 q -0.0372,-0.0129 -0.0972,-0.0257 -0.06,-0.0142 -0.10566,-0.0142 -0.14528,0 -0.21131,0.0772 -0.0649,0.0758 -0.0649,0.27586 v 0.0544 h 0.40702 v 0.22583 h -0.39982 v 1.37076 h -0.22572 v -1.37076 h -0.15248 v -0.22583 h 0.15248 v -0.0529 q 0,-0.28445 0.11886,-0.43596 0.11887,-0.15294 0.34338,-0.15294 0.0757,0 0.13568,0.009 0.0612,0.009 0.11166,0.02 z"
         style="font-style:normal;font-variant:normal;font-weight:normal;font-stretch:normal;font-size:3.52778px;font-family:sans-serif;-inkscape-font-specification:sans-serif;stroke-width:0.201218"
         id="path932" />
      <path
         d="m 111.75923,126.33987 h -0.25453 v -0.27872 h 0.25453 z m -0.0144,1.86388 h -0.22571 v -1.59659 h 0.22571 z"
         style="font-style:normal;font-variant:normal;font-weight:normal;font-stretch:normal;font-size:3.52778px;font-family:sans-serif;-inkscape-font-specification:sans-serif;stroke-width:0.201218"
         id="path934" />
      <path
         d="m 113.28165,128.02222 q 0,0.40594 -0.15489,0.59604 -0.15489,0.19011 -0.47665,0.19011 -0.10686,0 -0.20892,-0.0186 -0.10085,-0.0172 -0.1993,-0.0501 v -0.27442 h 0.012 q 0.0552,0.0257 0.17529,0.0629 0.12006,0.0386 0.24013,0.0386 0.11525,0 0.1909,-0.0329 0.0757,-0.0329 0.11765,-0.0915 0.042,-0.0558 0.06,-0.13437 0.018,-0.0786 0.018,-0.17581 v -0.14579 q -0.10205,0.0972 -0.1957,0.14579 -0.0924,0.0471 -0.23653,0.0471 -0.24012,0 -0.3818,-0.20584 -0.14048,-0.20725 -0.14048,-0.58317 0,-0.20584 0.048,-0.35448 0.0492,-0.15008 0.13327,-0.25872 0.078,-0.10149 0.18969,-0.15724 0.11167,-0.0572 0.22213,-0.0572 0.11646,0 0.1945,0.0286 0.0792,0.0271 0.16689,0.0843 l 0.0144,-0.0686 h 0.21131 z m -0.22573,-0.25728 v -0.87048 q -0.0901,-0.0486 -0.16809,-0.0686 -0.0769,-0.0214 -0.15368,-0.0214 -0.1861,0 -0.29296,0.14865 -0.10685,0.14866 -0.10685,0.43167 0,0.26872 0.0792,0.40736 0.0792,0.13866 0.26295,0.13866 0.0984,0 0.1969,-0.0443 0.0996,-0.0458 0.1825,-0.12149 z"
         style="font-style:normal;font-variant:normal;font-weight:normal;font-stretch:normal;font-size:3.52778px;font-family:sans-serif;-inkscape-font-specification:sans-serif;stroke-width:0.201218"
         id="path936" />
    </g>
  </g>
  <g
     inkscape:groupmode="layer"
     id="layer2"
     inkscape:label="components"
     style="display:none">
    <rect
       id="ACTIVE"
       width="4.8108511"
       height="6.1471992"
       x="9.5488129"
       y="109.45066"
       style="display:inline;fill:#ff0000;fill-opacity:1;stroke-width:0.224311" />
    <rect
       style="display:inline;fill:#ff0000;fill-opacity:1;stroke-width:0.224311"
       y="109.45066"
       x="37.065495"
       height="6.1471992"
       width="4.8108511"
       id="CONFIG" />
  </g>
</svg>
