<?xml version="1.0" encoding="UTF-8" standalone="no"?>
<svg
   xmlns:dc="http://purl.org/dc/elements/1.1/"
   xmlns:cc="http://creativecommons.org/ns#"
   xmlns:rdf="http://www.w3.org/1999/02/22-rdf-syntax-ns#"
   xmlns:svg="http://www.w3.org/2000/svg"
   xmlns="http://www.w3.org/2000/svg"
   xmlns:sodipodi="http://sodipodi.sourceforge.net/DTD/sodipodi-0.dtd"
   xmlns:inkscape="http://www.inkscape.org/namespaces/inkscape"
   width="50.799999mm"
   height="128.50069mm"
   viewBox="0 0 50.799999 128.50069"
   version="1.1"
   id="svg22863"
   inkscape:version="1.0 (4035a4fb49, 2020-05-01)"
   sodipodi:docname="PushMapPanel.svg">
  <defs
     id="defs22857" />
  <sodipodi:namedview
     inkscape:snap-text-baseline="true"
     id="base"
     pagecolor="#ffffff"
     bordercolor="#666666"
     borderopacity="1.0"
     inkscape:pageopacity="0.0"
     inkscape:pageshadow="2"
     inkscape:zoom="0.98994949"
     inkscape:cx="23.320889"
     inkscape:cy="233.54713"
     inkscape:document-units="mm"
     inkscape:current-layer="layer1"
     showgrid="false"
     fit-margin-top="0"
     fit-margin-left="0"
     fit-margin-right="0"
     fit-margin-bottom="0"
     inkscape:snap-bbox="true"
     inkscape:snap-nodes="false"
     inkscape:bbox-nodes="true"
     inkscape:window-width="1920"
     inkscape:window-height="1057"
     inkscape:window-x="-8"
     inkscape:window-y="-8"
     inkscape:window-maximized="1"
     inkscape:document-rotation="0" />
  <metadata
     id="metadata22860">
    <rdf:RDF>
      <cc:Work
         rdf:about="">
        <dc:format>image/svg+xml</dc:format>
        <dc:type
           rdf:resource="http://purl.org/dc/dcmitype/StillImage" />
        <dc:title></dc:title>
      </cc:Work>
    </rdf:RDF>
  </metadata>
  <g
     style="display:inline"
     inkscape:label="Layer 1"
     inkscape:groupmode="layer"
     id="layer1"
     transform="translate(-69.85,-117.08894)">
    <path
       inkscape:connector-curvature="0"
       style="fill:#e6e6e6;fill-opacity:1;fill-rule:nonzero;stroke:none;stroke-width:0.352778"
       d="M 69.942357,117.18265 H 120.5563 V 245.49592 H 69.942357 Z m 0,0"
       id="path11771" />
    <path
       inkscape:connector-curvature="0"
       style="fill:#ababab;fill-opacity:1;fill-rule:nonzero;stroke:none;stroke-width:0.352778"
       d="m 120.65,117.08894 h -50.8 v 128.50069 h 50.8 z m -0.1874,128.31328 H 70.036055 V 117.27636 H 120.4626 Z m 0,0"
       id="path11773" />
    <path
       inkscape:connector-curvature="0"
       style="fill:#ffd714;fill-opacity:1;stroke:none;stroke-width:0.352778"
       d=""
       id="path21860" />
    <path
       inkscape:connector-curvature="0"
       style="fill:#ffd714;fill-opacity:1;stroke:none;stroke-width:0.352778"
       d=""
       id="path21804" />
    <path
       inkscape:connector-curvature="0"
       style="fill:#ffd714;fill-opacity:1;stroke:none;stroke-width:0.352778"
       d=""
       id="path21824" />
    <path
       inkscape:connector-curvature="0"
       style="fill:#ffd714;fill-opacity:1;stroke:none;stroke-width:0.352778"
       d=""
       id="path21756" />
    <g
       style="font-style:normal;font-variant:normal;font-weight:bold;font-stretch:normal;font-size:4.23333px;line-height:1.25;font-family:sans-serif;-inkscape-font-specification:'sans-serif Bold';display:inline;fill:#000000;fill-opacity:1;stroke:none;stroke-width:0.264583"
       id="text37-9"
       aria-label="PushMap">
      <path
         id="path117"
         style="font-style:normal;font-variant:normal;font-weight:bold;font-stretch:normal;font-size:4.23333px;font-family:sans-serif;-inkscape-font-specification:'sans-serif Bold';stroke-width:0.264583"
         d="m 87.442185,123.19894 q 0,0.2067 -0.07235,0.40514 -0.07235,0.19637 -0.206705,0.33073 -0.183968,0.1819 -0.411345,0.27492 -0.225309,0.093 -0.562239,0.093 h -0.494026 v 1.00252 h -0.793749 v -3.07785 h 1.306379 q 0.293522,0 0.494026,0.0517 0.202572,0.0496 0.357601,0.15089 0.186035,0.12196 0.283186,0.31213 0.09922,0.19017 0.09922,0.45682 z m -0.820621,0.0186 q 0,-0.13022 -0.07028,-0.22324 -0.07028,-0.0951 -0.163297,-0.13229 -0.124024,-0.0496 -0.241846,-0.0537 -0.117822,-0.006 -0.314192,-0.006 h -0.136426 v 0.92191 h 0.227376 q 0.202572,0 0.332796,-0.0248 0.132292,-0.0248 0.221175,-0.0992 0.07648,-0.0662 0.109554,-0.1571 0.03514,-0.093 0.03514,-0.22531 z" />
      <path
         id="path119"
         style="font-style:normal;font-variant:normal;font-weight:bold;font-stretch:normal;font-size:4.23333px;font-family:sans-serif;-inkscape-font-specification:'sans-serif Bold';stroke-width:0.264583"
         d="m 90.274051,125.30527 h -0.74414 v -0.25632 q -0.206705,0.1571 -0.378271,0.23978 -0.171566,0.0806 -0.409277,0.0806 -0.384472,0 -0.593245,-0.22118 -0.206706,-0.22117 -0.206706,-0.65319 v -1.51102 h 0.748275 v 1.15135 q 0,0.1757 0.01033,0.29353 0.0124,0.11575 0.05374,0.19223 0.03927,0.0765 0.117822,0.11162 0.08062,0.0351 0.223242,0.0351 0.09509,0 0.21084,-0.0351 0.115755,-0.0351 0.223242,-0.10335 v -1.64538 h 0.74414 z" />
      <path
         id="path121"
         style="font-style:normal;font-variant:normal;font-weight:bold;font-stretch:normal;font-size:4.23333px;font-family:sans-serif;-inkscape-font-specification:'sans-serif Bold';stroke-width:0.264583"
         d="m 92.996363,124.5694 q 0,0.35966 -0.32246,0.58084 -0.322461,0.21911 -0.882633,0.21911 -0.310058,0 -0.562239,-0.0579 -0.252181,-0.0579 -0.405143,-0.12816 v -0.61185 h 0.06821 q 0.05581,0.0393 0.128157,0.0868 0.07441,0.0455 0.208773,0.0992 0.115755,0.0475 0.262516,0.0827 0.146761,0.0331 0.314192,0.0331 0.219108,0 0.324528,-0.0475 0.10542,-0.0496 0.10542,-0.14469 0,-0.0847 -0.06201,-0.12196 -0.06201,-0.0393 -0.235644,-0.0744 -0.08268,-0.0186 -0.225309,-0.0393 -0.14056,-0.0227 -0.256315,-0.0537 -0.31626,-0.0827 -0.469222,-0.25632 -0.152962,-0.1757 -0.152962,-0.43614 0,-0.33487 0.31626,-0.55604 0.318326,-0.22324 0.868163,-0.22324 0.260449,0 0.49816,0.0537 0.239779,0.0517 0.374138,0.11162 v 0.58704 h -0.06408 q -0.165365,-0.11368 -0.378271,-0.18396 -0.21084,-0.0724 -0.427881,-0.0724 -0.179834,0 -0.303857,0.0496 -0.121956,0.0496 -0.121956,0.14056 0,0.0827 0.05581,0.12609 0.05581,0.0434 0.262516,0.0868 0.113688,0.0227 0.243913,0.0455 0.132291,0.0207 0.264583,0.0537 0.293522,0.0765 0.434082,0.24185 0.140559,0.1633 0.140559,0.40928 z" />
      <path
         id="path123"
         style="font-style:normal;font-variant:normal;font-weight:bold;font-stretch:normal;font-size:4.23333px;font-family:sans-serif;-inkscape-font-specification:'sans-serif Bold';stroke-width:0.264583"
         d="m 95.824095,125.30527 h -0.748274 v -1.15135 q 0,-0.14056 -0.01447,-0.27906 -0.01447,-0.14055 -0.04961,-0.2067 -0.04134,-0.0765 -0.121956,-0.11162 -0.07855,-0.0351 -0.221175,-0.0351 -0.101286,0 -0.206705,0.0331 -0.103353,0.0331 -0.22531,0.10542 v 1.64538 h -0.74414 v -3.21634 h 0.74414 v 1.15135 q 0.198438,-0.15503 0.380339,-0.23771 0.183968,-0.0827 0.40721,-0.0827 0.376204,0 0.587043,0.2191 0.212907,0.21911 0.212907,0.65526 z" />
      <path
         id="path125"
         style="font-style:normal;font-variant:normal;font-weight:bold;font-stretch:normal;font-size:4.23333px;font-family:sans-serif;-inkscape-font-specification:'sans-serif Bold';stroke-width:0.264583"
         d="m 99.778373,125.30527 h -0.789616 v -2.06086 l -0.570507,1.33739 h -0.54777 l -0.570507,-1.33739 v 2.06086 h -0.748274 v -3.07785 h 0.921907 l 0.692463,1.54409 0.690397,-1.54409 h 0.921907 z" />
      <path
         id="path127"
         style="font-style:normal;font-variant:normal;font-weight:bold;font-stretch:normal;font-size:4.23333px;font-family:sans-serif;-inkscape-font-specification:'sans-serif Bold';stroke-width:0.264583"
         d="m 101.92604,124.69962 v -0.48369 q -0.15089,0.0124 -0.32659,0.0351 -0.1757,0.0207 -0.26665,0.0496 -0.11162,0.0351 -0.17157,0.10335 -0.0579,0.0661 -0.0579,0.1757 0,0.0724 0.0124,0.11782 0.0124,0.0455 0.062,0.0868 0.0475,0.0413 0.11369,0.062 0.0661,0.0186 0.2067,0.0186 0.11162,0 0.22531,-0.0455 0.11576,-0.0455 0.20257,-0.11989 z m 0,0.35967 q -0.0599,0.0455 -0.14882,0.10955 -0.0889,0.0641 -0.16744,0.10129 -0.10955,0.0496 -0.22737,0.0723 -0.11782,0.0248 -0.25838,0.0248 -0.33073,0 -0.55397,-0.20464 -0.22325,-0.20464 -0.22325,-0.52296 0,-0.25425 0.11369,-0.41548 0.11369,-0.16123 0.32246,-0.25425 0.20671,-0.093 0.51263,-0.13229 0.30593,-0.0393 0.63459,-0.0579 v -0.0124 q 0,-0.19224 -0.1571,-0.26459 -0.15709,-0.0744 -0.46302,-0.0744 -0.18397,0 -0.39274,0.0661 -0.20877,0.0641 -0.29972,0.0992 h -0.0682 v -0.56018 q 0.11783,-0.031 0.38241,-0.0723 0.26665,-0.0434 0.5333,-0.0434 0.63459,0 0.91571,0.19637 0.28318,0.1943 0.28318,0.61185 v 1.57923 h -0.73794 z" />
      <path
         id="path129"
         style="font-style:normal;font-variant:normal;font-weight:bold;font-stretch:normal;font-size:4.23333px;font-family:sans-serif;-inkscape-font-specification:'sans-serif Bold';stroke-width:0.264583"
         d="m 105.77077,124.11258 q 0,0.28732 -0.0889,0.52296 -0.0868,0.23565 -0.22944,0.38861 -0.14883,0.16123 -0.33693,0.24391 -0.1881,0.0827 -0.40308,0.0827 -0.19843,0 -0.33693,-0.0434 -0.13849,-0.0413 -0.28318,-0.11782 v 0.96738 h -0.74414 v -3.17293 h 0.74414 v 0.24185 q 0.17156,-0.13643 0.34933,-0.22118 0.17983,-0.0847 0.41341,-0.0847 0.43408,0 0.67386,0.31832 0.24185,0.31833 0.24185,0.87437 z m -0.76688,0.0145 q 0,-0.339 -0.11576,-0.49196 -0.11575,-0.15297 -0.36586,-0.15297 -0.10542,0 -0.21705,0.0331 -0.11162,0.031 -0.2129,0.091 v 1.16788 q 0.0744,0.0289 0.15916,0.0372 0.0847,0.008 0.16743,0.008 0.29559,0 0.44029,-0.17157 0.14469,-0.17363 0.14469,-0.52089 z" />
    </g>
    <g
       style="font-style:normal;font-variant:normal;font-weight:bold;font-stretch:normal;font-size:4.23331px;line-height:1.25;font-family:sans-serif;-inkscape-font-specification:'sans-serif Bold';display:inline;fill:#000000;fill-opacity:1;stroke:none;stroke-width:0.264582"
       id="text37-9-1"
       aria-label="deLirios">
      <path
         id="path132"
         style="font-style:normal;font-variant:normal;font-weight:bold;font-stretch:normal;font-size:4.23331px;font-family:sans-serif;-inkscape-font-specification:'sans-serif Bold';stroke-width:0.264582"
         d="m 88.383049,240.30424 h -0.744137 v -0.24184 q -0.192235,0.1571 -0.359666,0.23151 -0.16743,0.0744 -0.386537,0.0744 -0.423745,0 -0.677991,-0.32659 -0.254247,-0.32659 -0.254247,-0.88056 0,-0.29559 0.08475,-0.52296 0.08682,-0.22945 0.235643,-0.39274 0.140559,-0.15503 0.341063,-0.23978 0.200503,-0.0868 0.401007,-0.0868 0.208771,0 0.341062,0.0455 0.134358,0.0434 0.274917,0.11162 v -0.98805 h 0.744137 z m -0.744137,-0.64078 v -1.13894 q -0.07855,-0.0331 -0.165363,-0.0475 -0.08682,-0.0145 -0.159163,-0.0145 -0.29352,0 -0.440281,0.18396 -0.14676,0.1819 -0.14676,0.50643 0,0.34106 0.117822,0.49609 0.117821,0.15296 0.378269,0.15296 0.101285,0 0.214973,-0.0372 0.113688,-0.0393 0.200503,-0.10129 z" />
      <path
         id="path134"
         style="font-style:normal;font-variant:normal;font-weight:bold;font-stretch:normal;font-size:4.23331px;font-family:sans-serif;-inkscape-font-specification:'sans-serif Bold';stroke-width:0.264582"
         d="m 91.371997,239.28106 h -1.703245 q 0.01654,0.27285 0.206704,0.41754 0.192235,0.14469 0.564304,0.14469 0.235643,0 0.456817,-0.0847 0.221174,-0.0847 0.349331,-0.1819 h 0.08268 v 0.59738 q -0.25218,0.10129 -0.475421,0.14676 -0.223241,0.0455 -0.494024,0.0455 -0.698662,0 -1.07073,-0.31419 -0.372068,-0.3142 -0.372068,-0.89504 0,-0.57463 0.351398,-0.9095 0.353465,-0.33692 0.967377,-0.33692 0.566371,0 0.851623,0.28732 0.285252,0.28525 0.285252,0.82268 z m -0.740002,-0.43615 q -0.0062,-0.23358 -0.115755,-0.3514 -0.109553,-0.11782 -0.341062,-0.11782 -0.214973,0 -0.353465,0.11162 -0.138492,0.11162 -0.155028,0.3576 z" />
      <path
         id="path136"
         style="font-style:normal;font-variant:normal;font-weight:bold;font-stretch:normal;font-size:4.23331px;font-family:sans-serif;-inkscape-font-specification:'sans-serif Bold';stroke-width:0.264582"
         d="m 94.158376,240.30424 h -2.220008 v -3.07783 h 0.793746 v 2.48253 h 1.426262 z" />
      <path
         id="path138"
         style="font-style:normal;font-variant:normal;font-weight:bold;font-stretch:normal;font-size:4.23331px;font-family:sans-serif;-inkscape-font-specification:'sans-serif Bold';stroke-width:0.264582"
         d="m 95.336592,240.30424 h -0.744137 v -2.32129 h 0.744137 z m 0.02067,-2.65202 h -0.785477 v -0.5643 h 0.785477 z" />
      <path
         id="path140"
         style="font-style:normal;font-variant:normal;font-weight:bold;font-stretch:normal;font-size:4.23331px;font-family:sans-serif;-inkscape-font-specification:'sans-serif Bold';stroke-width:0.264582"
         d="m 97.721963,238.69195 h -0.06615 q -0.04754,-0.0165 -0.152961,-0.0248 -0.10542,-0.008 -0.175699,-0.008 -0.159163,0 -0.281119,0.0207 -0.121955,0.0207 -0.262514,0.0703 v 1.55441 h -0.744137 v -2.32129 h 0.744137 v 0.34106 q 0.245978,-0.21083 0.427878,-0.27905 0.1819,-0.0703 0.334862,-0.0703 0.03927,0 0.08888,0.002 0.04961,0.002 0.08682,0.006 z" />
      <path
         id="path142"
         style="font-style:normal;font-variant:normal;font-weight:bold;font-stretch:normal;font-size:4.23331px;font-family:sans-serif;-inkscape-font-specification:'sans-serif Bold';stroke-width:0.264582"
         d="m 98.891911,240.30424 h -0.744137 v -2.32129 h 0.744137 z m 0.02067,-2.65202 h -0.785477 v -0.5643 h 0.785477 z" />
      <path
         id="path144"
         style="font-style:normal;font-variant:normal;font-weight:bold;font-stretch:normal;font-size:4.23331px;font-family:sans-serif;-inkscape-font-specification:'sans-serif Bold';stroke-width:0.264582"
         d="m 101.96768,239.14463 q 0,0.57257 -0.33487,0.9033 -0.33279,0.32866 -0.93637,0.32866 -0.60358,0 -0.938437,-0.32866 -0.332794,-0.33073 -0.332794,-0.9033 0,-0.5767 0.334862,-0.90536 0.336929,-0.32866 0.936369,-0.32866 0.60771,0 0.93844,0.33072 0.3328,0.33073 0.3328,0.9033 z m -0.91571,0.56431 q 0.0724,-0.0889 0.10749,-0.21291 0.0372,-0.12609 0.0372,-0.34726 0,-0.20464 -0.0372,-0.34313 -0.0372,-0.1385 -0.10335,-0.22118 -0.0662,-0.0848 -0.15916,-0.11989 -0.093,-0.0351 -0.20051,-0.0351 -0.10748,0 -0.19223,0.0289 -0.0827,0.0289 -0.15917,0.11576 -0.0682,0.0806 -0.10955,0.22117 -0.0393,0.14056 -0.0393,0.35347 0,0.19016 0.0351,0.33072 0.0351,0.1385 0.10335,0.22324 0.0661,0.0806 0.15709,0.11783 0.093,0.0372 0.21084,0.0372 0.10129,0 0.19224,-0.0331 0.093,-0.0351 0.15709,-0.11575 z" />
      <path
         id="path146"
         style="font-style:normal;font-variant:normal;font-weight:bold;font-stretch:normal;font-size:4.23331px;font-family:sans-serif;-inkscape-font-specification:'sans-serif Bold';stroke-width:0.264582"
         d="m 104.52254,239.56838 q 0,0.35966 -0.32246,0.58084 -0.32245,0.2191 -0.88262,0.2191 -0.31006,0 -0.56224,-0.0579 -0.25218,-0.0579 -0.40514,-0.12816 v -0.61185 h 0.0682 q 0.0558,0.0393 0.12816,0.0868 0.0744,0.0455 0.20877,0.0992 0.11575,0.0475 0.26251,0.0827 0.14676,0.0331 0.3142,0.0331 0.2191,0 0.32452,-0.0475 0.10542,-0.0496 0.10542,-0.14469 0,-0.0848 -0.062,-0.12196 -0.062,-0.0393 -0.23564,-0.0744 -0.0827,-0.0186 -0.22531,-0.0393 -0.14056,-0.0227 -0.25632,-0.0537 -0.31625,-0.0827 -0.46921,-0.25631 -0.15297,-0.1757 -0.15297,-0.43615 0,-0.33486 0.31626,-0.55604 0.31833,-0.22324 0.86816,-0.22324 0.26045,0 0.49816,0.0538 0.23978,0.0517 0.37413,0.11162 v 0.58704 h -0.0641 q -0.16537,-0.11369 -0.37827,-0.18397 -0.21084,-0.0724 -0.42788,-0.0724 -0.17983,0 -0.30386,0.0496 -0.12195,0.0496 -0.12195,0.14056 0,0.0827 0.0558,0.12609 0.0558,0.0434 0.26251,0.0868 0.11369,0.0227 0.24391,0.0455 0.13229,0.0207 0.26459,0.0538 0.29352,0.0765 0.43408,0.24184 0.14055,0.1633 0.14055,0.40928 z" />
    </g>
  </g>
  <g
     inkscape:groupmode="layer"
     id="layer2"
     inkscape:label="widgets"
     style="display:none">
    <rect
       style="opacity:1;vector-effect:none;fill:#ffff00;fill-opacity:1;fill-rule:evenodd;stroke:none;stroke-width:0.675323;stroke-linecap:butt;stroke-linejoin:miter;stroke-miterlimit:4;stroke-dasharray:none;stroke-dashoffset:0;stroke-opacity:1;paint-order:normal"
       id="rect23983"
       width="43.999363"
       height="102.66385"
       x="3.3996489"
       y="14.838721" />
  </g>
</svg>
